<svg id="Gydrus" xmlns="http://www.w3.org/2000/svg" viewBox="0 0 882.89 882.89"><defs><style>.cls-1{fill:#6f6eff;}.cls-2{fill:#fff;}</style></defs><rect id="Bg" class="cls-1" width="882.89" height="882.89" rx="78.83"/><path id="Shape" class="cls-2" d="M416.93,674.72c0-28.79,40.89-22.35,91.35-22.35,7.88,0,15.5-.17,22.77-.31,39.41-.82,68.54-1.68,68.54,22.66,0,28.73-40.89,81.94-91.31,81.94S416.93,703.51,416.93,674.72ZM613.44,554.3c-27.91-15.9,5.26-59.82,27.6-98s63-47.67,91-31.74,32.49,51.19,10.17,89.41c-16.78,28.82-65.42,46.13-100.38,46.13A58.84,58.84,0,0,1,613.44,554.3ZM274.36,513.93c-22.31-38.22-17.86-73.43,10.15-89.41s68.68-6.56,91,31.74,55.56,82.14,27.6,98a58.75,58.75,0,0,1-28.38,5.82C339.76,560.09,291.13,542.75,274.36,513.93ZM578.89,440.1c-35.21-9.31-53.16-93.15-40.1-141.29s52.16-42.4,87.37-33,53.12,18.65,40.09,66.8C654,377.7,618.84,441,585.48,441A24.84,24.84,0,0,1,578.89,440.1ZM350.28,332.56c-13.06-48.13,4.88-57.5,40.09-66.82s74.32-15,87.37,33-4.88,132.05-40.09,141.31a26.36,26.36,0,0,1-6.62.85c-33.32,0-68.47-63.26-80.73-108.37Z" transform="translate(-70.89 -70.11)"/></svg>